#!OML:ASF C:\Vicon Data\Big\jianyuan-13\jianyuan\Session 1\Capture.male.ASF
:FULLY-SPECIFIED
:DEGREES
237
root -7.230170 17.599786 -0.282399 0.570005 11.305573 1.516176
lowerback -7.816108 -4.389502 -3.369062 
upperback 2.666905 -5.554748 0.596537 
thorax 7.576486 -2.891964 1.703263 
lowerneck -6.194335 -0.354280 3.470958 
upperneck -0.390996 -0.656917 -3.917725 
head 0.908684 -0.387548 -1.841728 
rclavicle 0.000000 0.000000 
rhumerus -58.126500 -20.085159 -70.578901 
rradius 25.678786 
rwrist 36.589102 
rhand -18.243934 -16.350378 
rfingers 0.000000 
rthumb 8.034943 -46.177595 
lclavicle 0.000000 0.000000 
lhumerus -3.509620 -5.187421 96.346550 
lradius 62.291962 
lwrist -17.006140 
lhand -19.375062 3.302722 
lfingers 0.000000 
lthumb 6.943096 33.168823 
rfemur -55.003246 -1.696665 7.626931 
rtibia 32.154571 
rfoot -5.596584 -9.754042 
rtoes -31.119489 
lfemur 7.338224 -5.508877 -25.206598 
ltibia 20.471816 
lfoot -14.564645 -0.774309 
ltoes -36.996617 
238
root -7.245936 17.582587 -0.129916 0.806026 11.683710 1.620478
lowerback -8.173734 -4.448096 -3.581871 
upperback 2.571671 -5.593132 0.540878 
thorax 7.699040 -2.917312 1.732792 
lowerneck -6.085028 -0.428798 3.539470 
upperneck -0.391535 -0.759772 -3.797206 
head 0.885290 -0.436052 -1.816320 
rclavicle 0.000000 0.000000 
rhumerus -57.980456 -20.001536 -70.961913 
rradius 25.830219 
rwrist 36.233373 
rhand -18.131199 -16.181166 
rfingers 0.000000 
rthumb 8.143696 -46.004297 
lclavicle 0.000000 0.000000 
lhumerus -3.903179 -5.351711 96.448935 
lradius 62.085121 
lwrist -17.479881 
lhand -18.891203 2.933545 
lfingers 0.000000 
lthumb 7.410177 32.783756 
rfemur -53.950498 -1.423976 7.379168 
rtibia 31.670899 
rfoot -5.780734 -10.127466 
rtoes -31.132468 
lfemur 7.503575 -5.451098 -25.019862 
ltibia 20.694080 
lfoot -14.421507 -1.304063 
ltoes -37.227657 
239
root -7.258633 17.565786 0.014253 1.063062 12.058860 1.630862
lowerback -8.563273 -4.639192 -3.619878 
upperback 2.485673 -5.834572 0.602423 
thorax 7.858263 -3.037088 1.751706 
lowerneck -5.975890 -0.413563 3.108443 
upperneck -0.464036 -0.712251 -3.539591 
head 0.844391 -0.407583 -1.653413 
rclavicle 0.000000 0.000000 
rhumerus -57.541494 -19.440090 -71.460150 
rradius 25.852429 
rwrist 36.039141 
rhand -18.164400 -16.039672 
rfingers 0.000000 
rthumb 8.111699 -45.863958 
lclavicle 0.000000 0.000000 
lhumerus -4.266777 -5.106319 96.528287 
lradius 61.955370 
lwrist -17.908552 
lhand -18.486152 2.616260 
lfingers 0.000000 
lthumb 7.801150 32.452352 
rfemur -53.008300 -1.316534 7.361655 
rtibia 31.270138 
rfoot -5.775601 -10.311362 
rtoes -30.975002 
lfemur 7.648640 -5.543986 -24.760509 
ltibia 20.797687 
lfoot -14.306255 -1.752476 
ltoes -36.808177 
240
root -7.276335 17.544869 0.160613 1.275416 12.367550 1.813082
lowerback -8.859396 -4.638094 -3.948093 
upperback 2.438483 -5.777473 0.530476 
thorax 8.001621 -3.021986 1.844910 
lowerneck -5.932583 -0.534244 3.208257 
upperneck -0.536705 -0.881266 -3.456056 
head 0.807810 -0.490430 -1.647059 
rclavicle 0.000000 0.000000 
rhumerus -57.391402 -19.493601 -71.746131 
rradius 26.032806 
rwrist 35.625484 
rhand -17.908977 -15.853905 
rfingers 0.000000 
rthumb 8.358187 -45.668544 
lclavicle 0.000000 0.000000 
lhumerus -4.613798 -5.509991 96.594384 
lradius 61.792927 
lwrist -18.170384 
lhand -18.094442 2.333733 
lfingers 0.000000 
lthumb 8.179162 32.155428 
rfemur -52.017768 -1.021175 7.108411 
rtibia 30.899781 
rfoot -5.794718 -10.540862 
rtoes -30.774671 
lfemur 7.885615 -5.603389 -24.685395 
ltibia 20.936628 
lfoot -14.242759 -2.243884 
ltoes -36.238632 
